<?xml version="1.0" encoding="UTF-8" standalone="no"?>
<!DOCTYPE svg PUBLIC "-//W3C//DTD SVG 1.1//EN"
 "http://www.w3.org/Graphics/SVG/1.1/DTD/svg11.dtd">
<!-- Generated by graphviz version 2.40.1 (20161225.0304)
 -->
<!-- Title: snakemake_dag Pages: 1 -->
<svg width="828pt" height="548pt"
 viewBox="0.00 0.00 827.50 548.00" xmlns="http://www.w3.org/2000/svg" xmlns:xlink="http://www.w3.org/1999/xlink">
<g id="graph0" class="graph" transform="scale(1 1) rotate(0) translate(4 544)">
<title>snakemake_dag</title>
<polygon fill="#ffffff" stroke="transparent" points="-4,4 -4,-544 823.5,-544 823.5,4 -4,4"/>
<!-- 0 -->
<g id="node1" class="node">
<title>0</title>
<path fill="none" stroke="#59d856" stroke-width="2" stroke-dasharray="5,2" d="M433.5,-36C433.5,-36 403.5,-36 403.5,-36 397.5,-36 391.5,-30 391.5,-24 391.5,-24 391.5,-12 391.5,-12 391.5,-6 397.5,0 403.5,0 403.5,0 433.5,0 433.5,0 439.5,0 445.5,-6 445.5,-12 445.5,-12 445.5,-24 445.5,-24 445.5,-30 439.5,-36 433.5,-36"/>
<text text-anchor="middle" x="418.5" y="-15.5" font-family="sans" font-size="10.00" fill="#000000">all</text>
</g>
<!-- 1 -->
<g id="node2" class="node">
<title>1</title>
<path fill="none" stroke="#569ad8" stroke-width="2" stroke-dasharray="5,2" d="M324.5,-108C324.5,-108 294.5,-108 294.5,-108 288.5,-108 282.5,-102 282.5,-96 282.5,-96 282.5,-84 282.5,-84 282.5,-78 288.5,-72 294.5,-72 294.5,-72 324.5,-72 324.5,-72 330.5,-72 336.5,-78 336.5,-84 336.5,-84 336.5,-96 336.5,-96 336.5,-102 330.5,-108 324.5,-108"/>
<text text-anchor="middle" x="309.5" y="-87.5" font-family="sans" font-size="10.00" fill="#000000">report</text>
</g>
<!-- 1&#45;&gt;0 -->
<g id="edge1" class="edge">
<title>1&#45;&gt;0</title>
<path fill="none" stroke="#c0c0c0" stroke-width="2" d="M336.7241,-72.0171C350.64,-62.825 367.7524,-51.5213 382.7204,-41.6342"/>
<polygon fill="#c0c0c0" stroke="#c0c0c0" stroke-width="2" points="384.8302,-44.4353 391.2452,-36.0032 380.9721,-38.5945 384.8302,-44.4353"/>
</g>
<!-- 2 -->
<g id="node3" class="node">
<title>2</title>
<path fill="none" stroke="#56d8d8" stroke-width="2" stroke-dasharray="5,2" d="M325,-180C325,-180 294,-180 294,-180 288,-180 282,-174 282,-168 282,-168 282,-156 282,-156 282,-150 288,-144 294,-144 294,-144 325,-144 325,-144 331,-144 337,-150 337,-156 337,-156 337,-168 337,-168 337,-174 331,-180 325,-180"/>
<text text-anchor="middle" x="309.5" y="-159.5" font-family="sans" font-size="10.00" fill="#000000">postproc</text>
</g>
<!-- 2&#45;&gt;1 -->
<g id="edge7" class="edge">
<title>2&#45;&gt;1</title>
<path fill="none" stroke="#c0c0c0" stroke-width="2" d="M309.5,-143.8314C309.5,-136.131 309.5,-126.9743 309.5,-118.4166"/>
<polygon fill="#c0c0c0" stroke="#c0c0c0" stroke-width="2" points="313.0001,-118.4132 309.5,-108.4133 306.0001,-118.4133 313.0001,-118.4132"/>
</g>
<!-- 3 -->
<g id="node4" class="node">
<title>3</title>
<path fill="none" stroke="#97d856" stroke-width="2" stroke-dasharray="5,2" d="M443.5,-252C443.5,-252 393.5,-252 393.5,-252 387.5,-252 381.5,-246 381.5,-240 381.5,-240 381.5,-228 381.5,-228 381.5,-222 387.5,-216 393.5,-216 393.5,-216 443.5,-216 443.5,-216 449.5,-216 455.5,-222 455.5,-228 455.5,-228 455.5,-240 455.5,-240 455.5,-246 449.5,-252 443.5,-252"/>
<text text-anchor="middle" x="418.5" y="-231.5" font-family="sans" font-size="10.00" fill="#000000">contam_filter</text>
</g>
<!-- 3&#45;&gt;2 -->
<g id="edge8" class="edge">
<title>3&#45;&gt;2</title>
<path fill="none" stroke="#c0c0c0" stroke-width="2" d="M390.9947,-215.8314C377.182,-206.7074 360.2744,-195.539 345.4471,-185.7449"/>
<polygon fill="#c0c0c0" stroke="#c0c0c0" stroke-width="2" points="347.2696,-182.7541 336.9965,-180.1628 343.4114,-188.5949 347.2696,-182.7541"/>
</g>
<!-- 19 -->
<g id="node20" class="node">
<title>19</title>
<path fill="none" stroke="#56d8d8" stroke-width="2" stroke-dasharray="5,2" d="M252,-180C252,-180 221,-180 221,-180 215,-180 209,-174 209,-168 209,-168 209,-156 209,-156 209,-150 215,-144 221,-144 221,-144 252,-144 252,-144 258,-144 264,-150 264,-156 264,-156 264,-168 264,-168 264,-174 258,-180 252,-180"/>
<text text-anchor="middle" x="236.5" y="-159.5" font-family="sans" font-size="10.00" fill="#000000">postproc</text>
</g>
<!-- 3&#45;&gt;19 -->
<g id="edge30" class="edge">
<title>3&#45;&gt;19</title>
<path fill="none" stroke="#c0c0c0" stroke-width="2" d="M381.4593,-221.5594C353.7745,-211.9822 314.8961,-197.9462 273.6588,-180.3195"/>
<polygon fill="#c0c0c0" stroke="#c0c0c0" stroke-width="2" points="274.8337,-177.0144 264.2658,-176.2589 272.056,-183.4397 274.8337,-177.0144"/>
</g>
<!-- 21 -->
<g id="node22" class="node">
<title>21</title>
<path fill="none" stroke="#56d8d8" stroke-width="2" stroke-dasharray="5,2" d="M398,-180C398,-180 367,-180 367,-180 361,-180 355,-174 355,-168 355,-168 355,-156 355,-156 355,-150 361,-144 367,-144 367,-144 398,-144 398,-144 404,-144 410,-150 410,-156 410,-156 410,-168 410,-168 410,-174 404,-180 398,-180"/>
<text text-anchor="middle" x="382.5" y="-159.5" font-family="sans" font-size="10.00" fill="#000000">postproc</text>
</g>
<!-- 3&#45;&gt;21 -->
<g id="edge33" class="edge">
<title>3&#45;&gt;21</title>
<path fill="none" stroke="#c0c0c0" stroke-width="2" d="M409.4157,-215.8314C405.4385,-207.8771 400.6845,-198.369 396.2861,-189.5723"/>
<polygon fill="#c0c0c0" stroke="#c0c0c0" stroke-width="2" points="399.3093,-187.7923 391.7066,-180.4133 393.0483,-190.9228 399.3093,-187.7923"/>
</g>
<!-- 23 -->
<g id="node24" class="node">
<title>23</title>
<path fill="none" stroke="#56d8d8" stroke-width="2" stroke-dasharray="5,2" d="M471,-180C471,-180 440,-180 440,-180 434,-180 428,-174 428,-168 428,-168 428,-156 428,-156 428,-150 434,-144 440,-144 440,-144 471,-144 471,-144 477,-144 483,-150 483,-156 483,-156 483,-168 483,-168 483,-174 477,-180 471,-180"/>
<text text-anchor="middle" x="455.5" y="-159.5" font-family="sans" font-size="10.00" fill="#000000">postproc</text>
</g>
<!-- 3&#45;&gt;23 -->
<g id="edge36" class="edge">
<title>3&#45;&gt;23</title>
<path fill="none" stroke="#c0c0c0" stroke-width="2" d="M427.8367,-215.8314C431.9243,-207.8771 436.8104,-198.369 441.3309,-189.5723"/>
<polygon fill="#c0c0c0" stroke="#c0c0c0" stroke-width="2" points="444.5799,-190.9074 446.0376,-180.4133 438.3539,-187.7078 444.5799,-190.9074"/>
</g>
<!-- 25 -->
<g id="node26" class="node">
<title>25</title>
<path fill="none" stroke="#56d8d8" stroke-width="2" stroke-dasharray="5,2" d="M544,-180C544,-180 513,-180 513,-180 507,-180 501,-174 501,-168 501,-168 501,-156 501,-156 501,-150 507,-144 513,-144 513,-144 544,-144 544,-144 550,-144 556,-150 556,-156 556,-156 556,-168 556,-168 556,-174 550,-180 544,-180"/>
<text text-anchor="middle" x="528.5" y="-159.5" font-family="sans" font-size="10.00" fill="#000000">postproc</text>
</g>
<!-- 3&#45;&gt;25 -->
<g id="edge39" class="edge">
<title>3&#45;&gt;25</title>
<path fill="none" stroke="#c0c0c0" stroke-width="2" d="M446.2576,-215.8314C460.197,-206.7074 477.2598,-195.539 492.2231,-185.7449"/>
<polygon fill="#c0c0c0" stroke="#c0c0c0" stroke-width="2" points="494.301,-188.5679 500.7512,-180.1628 490.4674,-182.711 494.301,-188.5679"/>
</g>
<!-- 27 -->
<g id="node28" class="node">
<title>27</title>
<path fill="none" stroke="#56d8d8" stroke-width="2" stroke-dasharray="5,2" d="M617,-180C617,-180 586,-180 586,-180 580,-180 574,-174 574,-168 574,-168 574,-156 574,-156 574,-150 580,-144 586,-144 586,-144 617,-144 617,-144 623,-144 629,-150 629,-156 629,-156 629,-168 629,-168 629,-174 623,-180 617,-180"/>
<text text-anchor="middle" x="601.5" y="-159.5" font-family="sans" font-size="10.00" fill="#000000">postproc</text>
</g>
<!-- 3&#45;&gt;27 -->
<g id="edge42" class="edge">
<title>3&#45;&gt;27</title>
<path fill="none" stroke="#c0c0c0" stroke-width="2" d="M455.7984,-221.3456C485.5371,-210.9836 528.0876,-195.5462 564.5,-180 564.5944,-179.9597 564.689,-179.9192 564.7836,-179.8787"/>
<polygon fill="#c0c0c0" stroke="#c0c0c0" stroke-width="2" points="566.0594,-183.1424 573.7553,-175.8606 563.1982,-176.7538 566.0594,-183.1424"/>
</g>
<!-- 4 -->
<g id="node5" class="node">
<title>4</title>
<path fill="none" stroke="#d89556" stroke-width="2" stroke-dasharray="5,2" d="M274.5,-324C274.5,-324 234.5,-324 234.5,-324 228.5,-324 222.5,-318 222.5,-312 222.5,-312 222.5,-300 222.5,-300 222.5,-294 228.5,-288 234.5,-288 234.5,-288 274.5,-288 274.5,-288 280.5,-288 286.5,-294 286.5,-300 286.5,-300 286.5,-312 286.5,-312 286.5,-318 280.5,-324 274.5,-324"/>
<text text-anchor="middle" x="254.5" y="-303.5" font-family="sans" font-size="10.00" fill="#000000">consensus</text>
</g>
<!-- 4&#45;&gt;3 -->
<g id="edge10" class="edge">
<title>4&#45;&gt;3</title>
<path fill="none" stroke="#c0c0c0" stroke-width="2" d="M286.5102,-291.9468C310.8587,-281.2572 344.7162,-266.3929 372.0434,-254.3956"/>
<polygon fill="#c0c0c0" stroke="#c0c0c0" stroke-width="2" points="373.6613,-257.5078 381.4107,-250.2831 370.8473,-251.0983 373.6613,-257.5078"/>
</g>
<!-- 5 -->
<g id="node6" class="node">
<title>5</title>
<path fill="none" stroke="#d85656" stroke-width="2" stroke-dasharray="5,2" d="M256,-396C256,-396 155,-396 155,-396 149,-396 143,-390 143,-384 143,-384 143,-372 143,-372 143,-366 149,-360 155,-360 155,-360 256,-360 256,-360 262,-360 268,-366 268,-372 268,-372 268,-384 268,-384 268,-390 262,-396 256,-396"/>
<text text-anchor="middle" x="205.5" y="-381" font-family="sans" font-size="10.00" fill="#000000">porpid</text>
<text text-anchor="middle" x="205.5" y="-370" font-family="sans" font-size="10.00" fill="#000000">sample: dataset_1_REN</text>
</g>
<!-- 5&#45;&gt;2 -->
<g id="edge9" class="edge">
<title>5&#45;&gt;2</title>
<path fill="none" stroke="#c0c0c0" stroke-width="2" d="M167.3117,-359.8328C153.4025,-351.0933 139.21,-339.1707 131.5,-324 124.251,-309.7363 124.1484,-302.211 131.5,-288 146.8626,-258.3034 225.7515,-209.6097 273.1994,-182.2664"/>
<polygon fill="#c0c0c0" stroke="#c0c0c0" stroke-width="2" points="275.0144,-185.2604 281.9561,-177.2565 271.5382,-179.1845 275.0144,-185.2604"/>
</g>
<!-- 5&#45;&gt;4 -->
<g id="edge16" class="edge">
<title>5&#45;&gt;4</title>
<path fill="none" stroke="#c0c0c0" stroke-width="2" d="M217.8648,-359.8314C223.4509,-351.6232 230.163,-341.7606 236.3072,-332.7323"/>
<polygon fill="#c0c0c0" stroke="#c0c0c0" stroke-width="2" points="239.236,-334.6496 241.9687,-324.4133 233.449,-330.7112 239.236,-334.6496"/>
</g>
<!-- 6 -->
<g id="node7" class="node">
<title>6</title>
<path fill="none" stroke="#56d89a" stroke-width="2" stroke-dasharray="5,2" d="M433.5,-468C433.5,-468 403.5,-468 403.5,-468 397.5,-468 391.5,-462 391.5,-456 391.5,-456 391.5,-444 391.5,-444 391.5,-438 397.5,-432 403.5,-432 403.5,-432 433.5,-432 433.5,-432 439.5,-432 445.5,-438 445.5,-444 445.5,-444 445.5,-456 445.5,-456 445.5,-462 439.5,-468 433.5,-468"/>
<text text-anchor="middle" x="418.5" y="-447.5" font-family="sans" font-size="10.00" fill="#000000">demux</text>
</g>
<!-- 6&#45;&gt;5 -->
<g id="edge17" class="edge">
<title>6&#45;&gt;5</title>
<path fill="none" stroke="#c0c0c0" stroke-width="2" d="M391.09,-440.7347C360.3001,-430.3268 309.3051,-413.0891 268.5533,-399.3138"/>
<polygon fill="#c0c0c0" stroke="#c0c0c0" stroke-width="2" points="269.5596,-395.9595 258.9654,-396.0728 267.318,-402.5908 269.5596,-395.9595"/>
</g>
<!-- 9 -->
<g id="node10" class="node">
<title>9</title>
<path fill="none" stroke="#d85656" stroke-width="2" stroke-dasharray="5,2" d="M113,-396C113,-396 12,-396 12,-396 6,-396 0,-390 0,-384 0,-384 0,-372 0,-372 0,-366 6,-360 12,-360 12,-360 113,-360 113,-360 119,-360 125,-366 125,-372 125,-372 125,-384 125,-384 125,-390 119,-396 113,-396"/>
<text text-anchor="middle" x="62.5" y="-381" font-family="sans" font-size="10.00" fill="#000000">porpid</text>
<text text-anchor="middle" x="62.5" y="-370" font-family="sans" font-size="10.00" fill="#000000">sample: dataset_2_REN</text>
</g>
<!-- 6&#45;&gt;9 -->
<g id="edge20" class="edge">
<title>6&#45;&gt;9</title>
<path fill="none" stroke="#c0c0c0" stroke-width="2" d="M391.273,-445.4116C342.0654,-436.9966 234.8645,-418.1057 135.1087,-396.2971"/>
<polygon fill="#c0c0c0" stroke="#c0c0c0" stroke-width="2" points="135.6891,-392.8411 125.1704,-394.109 134.1839,-399.6774 135.6891,-392.8411"/>
</g>
<!-- 11 -->
<g id="node12" class="node">
<title>11</title>
<path fill="none" stroke="#d85656" stroke-width="2" stroke-dasharray="5,2" d="M399,-396C399,-396 298,-396 298,-396 292,-396 286,-390 286,-384 286,-384 286,-372 286,-372 286,-366 292,-360 298,-360 298,-360 399,-360 399,-360 405,-360 411,-366 411,-372 411,-372 411,-384 411,-384 411,-390 405,-396 399,-396"/>
<text text-anchor="middle" x="348.5" y="-381" font-family="sans" font-size="10.00" fill="#000000">porpid</text>
<text text-anchor="middle" x="348.5" y="-370" font-family="sans" font-size="10.00" fill="#000000">sample: dataset_3_REN</text>
</g>
<!-- 6&#45;&gt;11 -->
<g id="edge22" class="edge">
<title>6&#45;&gt;11</title>
<path fill="none" stroke="#c0c0c0" stroke-width="2" d="M400.836,-431.8314C392.5268,-423.2848 382.4736,-412.9443 373.4082,-403.6198"/>
<polygon fill="#c0c0c0" stroke="#c0c0c0" stroke-width="2" points="375.8821,-401.1435 366.4018,-396.4133 370.8631,-406.023 375.8821,-401.1435"/>
</g>
<!-- 13 -->
<g id="node14" class="node">
<title>13</title>
<path fill="none" stroke="#d85656" stroke-width="2" stroke-dasharray="5,2" d="M535.5,-396C535.5,-396 441.5,-396 441.5,-396 435.5,-396 429.5,-390 429.5,-384 429.5,-384 429.5,-372 429.5,-372 429.5,-366 435.5,-360 441.5,-360 441.5,-360 535.5,-360 535.5,-360 541.5,-360 547.5,-366 547.5,-372 547.5,-372 547.5,-384 547.5,-384 547.5,-390 541.5,-396 535.5,-396"/>
<text text-anchor="middle" x="488.5" y="-381" font-family="sans" font-size="10.00" fill="#000000">porpid</text>
<text text-anchor="middle" x="488.5" y="-370" font-family="sans" font-size="10.00" fill="#000000">sample: dataset_1_GP</text>
</g>
<!-- 6&#45;&gt;13 -->
<g id="edge24" class="edge">
<title>6&#45;&gt;13</title>
<path fill="none" stroke="#c0c0c0" stroke-width="2" d="M436.164,-431.8314C444.4732,-423.2848 454.5264,-412.9443 463.5918,-403.6198"/>
<polygon fill="#c0c0c0" stroke="#c0c0c0" stroke-width="2" points="466.1369,-406.023 470.5982,-396.4133 461.1179,-401.1435 466.1369,-406.023"/>
</g>
<!-- 15 -->
<g id="node16" class="node">
<title>15</title>
<path fill="none" stroke="#d85656" stroke-width="2" stroke-dasharray="5,2" d="M671.5,-396C671.5,-396 577.5,-396 577.5,-396 571.5,-396 565.5,-390 565.5,-384 565.5,-384 565.5,-372 565.5,-372 565.5,-366 571.5,-360 577.5,-360 577.5,-360 671.5,-360 671.5,-360 677.5,-360 683.5,-366 683.5,-372 683.5,-372 683.5,-384 683.5,-384 683.5,-390 677.5,-396 671.5,-396"/>
<text text-anchor="middle" x="624.5" y="-381" font-family="sans" font-size="10.00" fill="#000000">porpid</text>
<text text-anchor="middle" x="624.5" y="-370" font-family="sans" font-size="10.00" fill="#000000">sample: dataset_2_GP</text>
</g>
<!-- 6&#45;&gt;15 -->
<g id="edge26" class="edge">
<title>6&#45;&gt;15</title>
<path fill="none" stroke="#c0c0c0" stroke-width="2" d="M445.8552,-440.439C475.6192,-430.036 524.1654,-413.0684 563.1437,-399.4449"/>
<polygon fill="#c0c0c0" stroke="#c0c0c0" stroke-width="2" points="564.5449,-402.6629 572.8301,-396.0594 562.2353,-396.0549 564.5449,-402.6629"/>
</g>
<!-- 17 -->
<g id="node18" class="node">
<title>17</title>
<path fill="none" stroke="#d85656" stroke-width="2" stroke-dasharray="5,2" d="M807.5,-396C807.5,-396 713.5,-396 713.5,-396 707.5,-396 701.5,-390 701.5,-384 701.5,-384 701.5,-372 701.5,-372 701.5,-366 707.5,-360 713.5,-360 713.5,-360 807.5,-360 807.5,-360 813.5,-360 819.5,-366 819.5,-372 819.5,-372 819.5,-384 819.5,-384 819.5,-390 813.5,-396 807.5,-396"/>
<text text-anchor="middle" x="760.5" y="-381" font-family="sans" font-size="10.00" fill="#000000">porpid</text>
<text text-anchor="middle" x="760.5" y="-370" font-family="sans" font-size="10.00" fill="#000000">sample: dataset_3_GP</text>
</g>
<!-- 6&#45;&gt;17 -->
<g id="edge28" class="edge">
<title>6&#45;&gt;17</title>
<path fill="none" stroke="#c0c0c0" stroke-width="2" d="M445.8464,-445.2113C493.6432,-436.7125 595.6646,-418.0007 691.3807,-396.1899"/>
<polygon fill="#c0c0c0" stroke="#c0c0c0" stroke-width="2" points="692.254,-399.5806 701.2176,-393.9321 690.688,-392.758 692.254,-399.5806"/>
</g>
<!-- 7 -->
<g id="node8" class="node">
<title>7</title>
<path fill="none" stroke="#d6d856" stroke-width="2" stroke-dasharray="5,2" d="M446.5,-540C446.5,-540 390.5,-540 390.5,-540 384.5,-540 378.5,-534 378.5,-528 378.5,-528 378.5,-516 378.5,-516 378.5,-510 384.5,-504 390.5,-504 390.5,-504 446.5,-504 446.5,-504 452.5,-504 458.5,-510 458.5,-516 458.5,-516 458.5,-528 458.5,-528 458.5,-534 452.5,-540 446.5,-540"/>
<text text-anchor="middle" x="418.5" y="-525" font-family="sans" font-size="10.00" fill="#000000">quality_filter</text>
<text text-anchor="middle" x="418.5" y="-514" font-family="sans" font-size="10.00" fill="#000000">dataset: demo</text>
</g>
<!-- 7&#45;&gt;6 -->
<g id="edge18" class="edge">
<title>7&#45;&gt;6</title>
<path fill="none" stroke="#c0c0c0" stroke-width="2" d="M418.5,-503.8314C418.5,-496.131 418.5,-486.9743 418.5,-478.4166"/>
<polygon fill="#c0c0c0" stroke="#c0c0c0" stroke-width="2" points="422.0001,-478.4132 418.5,-468.4133 415.0001,-478.4133 422.0001,-478.4132"/>
</g>
<!-- 8 -->
<g id="node9" class="node">
<title>8</title>
<path fill="none" stroke="#d89556" stroke-width="2" stroke-dasharray="5,2" d="M192.5,-324C192.5,-324 152.5,-324 152.5,-324 146.5,-324 140.5,-318 140.5,-312 140.5,-312 140.5,-300 140.5,-300 140.5,-294 146.5,-288 152.5,-288 152.5,-288 192.5,-288 192.5,-288 198.5,-288 204.5,-294 204.5,-300 204.5,-300 204.5,-312 204.5,-312 204.5,-318 198.5,-324 192.5,-324"/>
<text text-anchor="middle" x="172.5" y="-303.5" font-family="sans" font-size="10.00" fill="#000000">consensus</text>
</g>
<!-- 8&#45;&gt;3 -->
<g id="edge11" class="edge">
<title>8&#45;&gt;3</title>
<path fill="none" stroke="#c0c0c0" stroke-width="2" d="M204.5393,-291.3684C207.5445,-290.1677 210.564,-289.0242 213.5,-288 266.6317,-269.4664 329.4213,-253.8092 371.3808,-244.2035"/>
<polygon fill="#c0c0c0" stroke="#c0c0c0" stroke-width="2" points="372.3381,-247.5754 381.3178,-241.9527 370.7917,-240.7484 372.3381,-247.5754"/>
</g>
<!-- 9&#45;&gt;8 -->
<g id="edge19" class="edge">
<title>9&#45;&gt;8</title>
<path fill="none" stroke="#c0c0c0" stroke-width="2" d="M90.2576,-359.8314C104.197,-350.7074 121.2598,-339.539 136.2231,-329.7449"/>
<polygon fill="#c0c0c0" stroke="#c0c0c0" stroke-width="2" points="138.301,-332.5679 144.7512,-324.1628 134.4674,-326.711 138.301,-332.5679"/>
</g>
<!-- 9&#45;&gt;19 -->
<g id="edge31" class="edge">
<title>9&#45;&gt;19</title>
<path fill="none" stroke="#c0c0c0" stroke-width="2" d="M70.8998,-359.975C86.2025,-328.3866 120.9992,-262.017 163.5,-216 174.276,-204.3325 187.8767,-193.4848 200.4098,-184.6187"/>
<polygon fill="#c0c0c0" stroke="#c0c0c0" stroke-width="2" points="202.6051,-187.3571 208.8681,-178.8116 198.643,-181.5862 202.6051,-187.3571"/>
</g>
<!-- 10 -->
<g id="node11" class="node">
<title>10</title>
<path fill="none" stroke="#d89556" stroke-width="2" stroke-dasharray="5,2" d="M394.5,-324C394.5,-324 354.5,-324 354.5,-324 348.5,-324 342.5,-318 342.5,-312 342.5,-312 342.5,-300 342.5,-300 342.5,-294 348.5,-288 354.5,-288 354.5,-288 394.5,-288 394.5,-288 400.5,-288 406.5,-294 406.5,-300 406.5,-300 406.5,-312 406.5,-312 406.5,-318 400.5,-324 394.5,-324"/>
<text text-anchor="middle" x="374.5" y="-303.5" font-family="sans" font-size="10.00" fill="#000000">consensus</text>
</g>
<!-- 10&#45;&gt;3 -->
<g id="edge12" class="edge">
<title>10&#45;&gt;3</title>
<path fill="none" stroke="#c0c0c0" stroke-width="2" d="M385.6031,-287.8314C390.5674,-279.7079 396.5222,-269.9637 401.9928,-261.0118"/>
<polygon fill="#c0c0c0" stroke="#c0c0c0" stroke-width="2" points="405.0194,-262.7712 407.2474,-252.4133 399.0464,-259.121 405.0194,-262.7712"/>
</g>
<!-- 11&#45;&gt;10 -->
<g id="edge21" class="edge">
<title>11&#45;&gt;10</title>
<path fill="none" stroke="#c0c0c0" stroke-width="2" d="M355.0609,-359.8314C357.9027,-351.9617 361.2937,-342.5712 364.4419,-333.8533"/>
<polygon fill="#c0c0c0" stroke="#c0c0c0" stroke-width="2" points="367.7462,-335.0076 367.8508,-324.4133 361.1623,-332.63 367.7462,-335.0076"/>
</g>
<!-- 11&#45;&gt;21 -->
<g id="edge34" class="edge">
<title>11&#45;&gt;21</title>
<path fill="none" stroke="#c0c0c0" stroke-width="2" d="M341.6711,-359.6901C335.7671,-341.4775 328.856,-312.7546 333.5,-288 340.1477,-252.5646 356.4598,-214.2888 368.4449,-189.3395"/>
<polygon fill="#c0c0c0" stroke="#c0c0c0" stroke-width="2" points="371.6929,-190.6655 372.9562,-180.1462 365.4087,-187.5817 371.6929,-190.6655"/>
</g>
<!-- 12 -->
<g id="node13" class="node">
<title>12</title>
<path fill="none" stroke="#d89556" stroke-width="2" stroke-dasharray="5,2" d="M476.5,-324C476.5,-324 436.5,-324 436.5,-324 430.5,-324 424.5,-318 424.5,-312 424.5,-312 424.5,-300 424.5,-300 424.5,-294 430.5,-288 436.5,-288 436.5,-288 476.5,-288 476.5,-288 482.5,-288 488.5,-294 488.5,-300 488.5,-300 488.5,-312 488.5,-312 488.5,-318 482.5,-324 476.5,-324"/>
<text text-anchor="middle" x="456.5" y="-303.5" font-family="sans" font-size="10.00" fill="#000000">consensus</text>
</g>
<!-- 12&#45;&gt;3 -->
<g id="edge13" class="edge">
<title>12&#45;&gt;3</title>
<path fill="none" stroke="#c0c0c0" stroke-width="2" d="M446.911,-287.8314C442.6683,-279.7925 437.5879,-270.1666 432.904,-261.2918"/>
<polygon fill="#c0c0c0" stroke="#c0c0c0" stroke-width="2" points="435.9811,-259.6235 428.2181,-252.4133 429.7904,-262.8908 435.9811,-259.6235"/>
</g>
<!-- 13&#45;&gt;12 -->
<g id="edge23" class="edge">
<title>13&#45;&gt;12</title>
<path fill="none" stroke="#c0c0c0" stroke-width="2" d="M480.425,-359.8314C476.8898,-351.8771 472.664,-342.369 468.7544,-333.5723"/>
<polygon fill="#c0c0c0" stroke="#c0c0c0" stroke-width="2" points="471.9435,-332.1299 464.6837,-324.4133 465.5468,-334.9729 471.9435,-332.1299"/>
</g>
<!-- 13&#45;&gt;23 -->
<g id="edge37" class="edge">
<title>13&#45;&gt;23</title>
<path fill="none" stroke="#c0c0c0" stroke-width="2" d="M539.0441,-359.8142C554.8527,-351.4611 570.5008,-339.8046 579.5,-324 587.417,-310.096 585.5638,-302.8064 579.5,-288 561.7977,-244.7748 521.3184,-208.4123 491.4002,-186.0297"/>
<polygon fill="#c0c0c0" stroke="#c0c0c0" stroke-width="2" points="493.4099,-183.1634 483.2696,-180.0933 489.2821,-188.8169 493.4099,-183.1634"/>
</g>
<!-- 14 -->
<g id="node15" class="node">
<title>14</title>
<path fill="none" stroke="#d89556" stroke-width="2" stroke-dasharray="5,2" d="M558.5,-324C558.5,-324 518.5,-324 518.5,-324 512.5,-324 506.5,-318 506.5,-312 506.5,-312 506.5,-300 506.5,-300 506.5,-294 512.5,-288 518.5,-288 518.5,-288 558.5,-288 558.5,-288 564.5,-288 570.5,-294 570.5,-300 570.5,-300 570.5,-312 570.5,-312 570.5,-318 564.5,-324 558.5,-324"/>
<text text-anchor="middle" x="538.5" y="-303.5" font-family="sans" font-size="10.00" fill="#000000">consensus</text>
</g>
<!-- 14&#45;&gt;3 -->
<g id="edge14" class="edge">
<title>14&#45;&gt;3</title>
<path fill="none" stroke="#c0c0c0" stroke-width="2" d="M508.2189,-287.8314C492.8702,-278.6221 474.0502,-267.3301 457.6177,-257.4706"/>
<polygon fill="#c0c0c0" stroke="#c0c0c0" stroke-width="2" points="459.1471,-254.3066 448.7714,-252.1628 455.5456,-260.3091 459.1471,-254.3066"/>
</g>
<!-- 15&#45;&gt;14 -->
<g id="edge25" class="edge">
<title>15&#45;&gt;14</title>
<path fill="none" stroke="#c0c0c0" stroke-width="2" d="M602.7986,-359.8314C592.3079,-351.0485 579.5545,-340.3712 568.1806,-330.8489"/>
<polygon fill="#c0c0c0" stroke="#c0c0c0" stroke-width="2" points="570.1089,-327.8986 560.1945,-324.1628 565.6153,-333.2659 570.1089,-327.8986"/>
</g>
<!-- 15&#45;&gt;25 -->
<g id="edge40" class="edge">
<title>15&#45;&gt;25</title>
<path fill="none" stroke="#c0c0c0" stroke-width="2" d="M619.9242,-359.7045C615.0527,-341.256 606.6536,-312.1329 596.5,-288 581.6267,-252.6493 559.9813,-214.1419 545.1293,-189.1234"/>
<polygon fill="#c0c0c0" stroke="#c0c0c0" stroke-width="2" points="547.9416,-187.0075 539.798,-180.2301 541.9377,-190.6066 547.9416,-187.0075"/>
</g>
<!-- 16 -->
<g id="node17" class="node">
<title>16</title>
<path fill="none" stroke="#d89556" stroke-width="2" stroke-dasharray="5,2" d="M718.5,-324C718.5,-324 678.5,-324 678.5,-324 672.5,-324 666.5,-318 666.5,-312 666.5,-312 666.5,-300 666.5,-300 666.5,-294 672.5,-288 678.5,-288 678.5,-288 718.5,-288 718.5,-288 724.5,-288 730.5,-294 730.5,-300 730.5,-300 730.5,-312 730.5,-312 730.5,-318 724.5,-324 718.5,-324"/>
<text text-anchor="middle" x="698.5" y="-303.5" font-family="sans" font-size="10.00" fill="#000000">consensus</text>
</g>
<!-- 16&#45;&gt;3 -->
<g id="edge15" class="edge">
<title>16&#45;&gt;3</title>
<path fill="none" stroke="#c0c0c0" stroke-width="2" d="M666.3804,-297.7407C617.0547,-285.0569 522.3955,-260.716 465.3969,-246.0592"/>
<polygon fill="#c0c0c0" stroke="#c0c0c0" stroke-width="2" points="466.112,-242.6293 455.5554,-243.5285 464.3686,-249.4087 466.112,-242.6293"/>
</g>
<!-- 17&#45;&gt;16 -->
<g id="edge27" class="edge">
<title>17&#45;&gt;16</title>
<path fill="none" stroke="#c0c0c0" stroke-width="2" d="M744.8548,-359.8314C737.6409,-351.454 728.943,-341.3531 721.0395,-332.1749"/>
<polygon fill="#c0c0c0" stroke="#c0c0c0" stroke-width="2" points="723.5333,-329.7071 714.3559,-324.4133 718.2289,-334.2748 723.5333,-329.7071"/>
</g>
<!-- 17&#45;&gt;27 -->
<g id="edge43" class="edge">
<title>17&#45;&gt;27</title>
<path fill="none" stroke="#c0c0c0" stroke-width="2" d="M759.4341,-359.9308C757.6201,-340.8815 752.7218,-310.5645 739.5,-288 714.2384,-244.8881 669.4218,-208.0436 637.7242,-185.5304"/>
<polygon fill="#c0c0c0" stroke="#c0c0c0" stroke-width="2" points="639.3656,-182.4085 629.1589,-179.5672 635.366,-188.1533 639.3656,-182.4085"/>
</g>
<!-- 18 -->
<g id="node19" class="node">
<title>18</title>
<path fill="none" stroke="#569ad8" stroke-width="2" stroke-dasharray="5,2" d="M252.5,-108C252.5,-108 222.5,-108 222.5,-108 216.5,-108 210.5,-102 210.5,-96 210.5,-96 210.5,-84 210.5,-84 210.5,-78 216.5,-72 222.5,-72 222.5,-72 252.5,-72 252.5,-72 258.5,-72 264.5,-78 264.5,-84 264.5,-84 264.5,-96 264.5,-96 264.5,-102 258.5,-108 252.5,-108"/>
<text text-anchor="middle" x="237.5" y="-87.5" font-family="sans" font-size="10.00" fill="#000000">report</text>
</g>
<!-- 18&#45;&gt;0 -->
<g id="edge2" class="edge">
<title>18&#45;&gt;0</title>
<path fill="none" stroke="#c0c0c0" stroke-width="2" d="M264.874,-75.9343C267.7664,-74.5619 270.6803,-73.2258 273.5,-72 309.7989,-56.2202 352.3476,-40.7162 381.927,-30.398"/>
<polygon fill="#c0c0c0" stroke="#c0c0c0" stroke-width="2" points="383.1301,-33.6854 391.4334,-27.1047 380.8386,-27.071 383.1301,-33.6854"/>
</g>
<!-- 19&#45;&gt;18 -->
<g id="edge29" class="edge">
<title>19&#45;&gt;18</title>
<path fill="none" stroke="#c0c0c0" stroke-width="2" d="M236.7523,-143.8314C236.8593,-136.131 236.9865,-126.9743 237.1053,-118.4166"/>
<polygon fill="#c0c0c0" stroke="#c0c0c0" stroke-width="2" points="240.6049,-118.4609 237.2443,-108.4133 233.6056,-118.3637 240.6049,-118.4609"/>
</g>
<!-- 20 -->
<g id="node21" class="node">
<title>20</title>
<path fill="none" stroke="#569ad8" stroke-width="2" stroke-dasharray="5,2" d="M397.5,-108C397.5,-108 367.5,-108 367.5,-108 361.5,-108 355.5,-102 355.5,-96 355.5,-96 355.5,-84 355.5,-84 355.5,-78 361.5,-72 367.5,-72 367.5,-72 397.5,-72 397.5,-72 403.5,-72 409.5,-78 409.5,-84 409.5,-84 409.5,-96 409.5,-96 409.5,-102 403.5,-108 397.5,-108"/>
<text text-anchor="middle" x="382.5" y="-87.5" font-family="sans" font-size="10.00" fill="#000000">report</text>
</g>
<!-- 20&#45;&gt;0 -->
<g id="edge3" class="edge">
<title>20&#45;&gt;0</title>
<path fill="none" stroke="#c0c0c0" stroke-width="2" d="M391.5843,-71.8314C395.5615,-63.8771 400.3155,-54.369 404.7139,-45.5723"/>
<polygon fill="#c0c0c0" stroke="#c0c0c0" stroke-width="2" points="407.9517,-46.9228 409.2934,-36.4133 401.6907,-43.7923 407.9517,-46.9228"/>
</g>
<!-- 21&#45;&gt;20 -->
<g id="edge32" class="edge">
<title>21&#45;&gt;20</title>
<path fill="none" stroke="#c0c0c0" stroke-width="2" d="M382.5,-143.8314C382.5,-136.131 382.5,-126.9743 382.5,-118.4166"/>
<polygon fill="#c0c0c0" stroke="#c0c0c0" stroke-width="2" points="386.0001,-118.4132 382.5,-108.4133 379.0001,-118.4133 386.0001,-118.4132"/>
</g>
<!-- 22 -->
<g id="node23" class="node">
<title>22</title>
<path fill="none" stroke="#569ad8" stroke-width="2" stroke-dasharray="5,2" d="M469.5,-108C469.5,-108 439.5,-108 439.5,-108 433.5,-108 427.5,-102 427.5,-96 427.5,-96 427.5,-84 427.5,-84 427.5,-78 433.5,-72 439.5,-72 439.5,-72 469.5,-72 469.5,-72 475.5,-72 481.5,-78 481.5,-84 481.5,-84 481.5,-96 481.5,-96 481.5,-102 475.5,-108 469.5,-108"/>
<text text-anchor="middle" x="454.5" y="-87.5" font-family="sans" font-size="10.00" fill="#000000">report</text>
</g>
<!-- 22&#45;&gt;0 -->
<g id="edge4" class="edge">
<title>22&#45;&gt;0</title>
<path fill="none" stroke="#c0c0c0" stroke-width="2" d="M445.4157,-71.8314C441.4385,-63.8771 436.6845,-54.369 432.2861,-45.5723"/>
<polygon fill="#c0c0c0" stroke="#c0c0c0" stroke-width="2" points="435.3093,-43.7923 427.7066,-36.4133 429.0483,-46.9228 435.3093,-43.7923"/>
</g>
<!-- 23&#45;&gt;22 -->
<g id="edge35" class="edge">
<title>23&#45;&gt;22</title>
<path fill="none" stroke="#c0c0c0" stroke-width="2" d="M455.2477,-143.8314C455.1407,-136.131 455.0135,-126.9743 454.8947,-118.4166"/>
<polygon fill="#c0c0c0" stroke="#c0c0c0" stroke-width="2" points="458.3944,-118.3637 454.7557,-108.4133 451.3951,-118.4609 458.3944,-118.3637"/>
</g>
<!-- 24 -->
<g id="node25" class="node">
<title>24</title>
<path fill="none" stroke="#569ad8" stroke-width="2" stroke-dasharray="5,2" d="M542.5,-108C542.5,-108 512.5,-108 512.5,-108 506.5,-108 500.5,-102 500.5,-96 500.5,-96 500.5,-84 500.5,-84 500.5,-78 506.5,-72 512.5,-72 512.5,-72 542.5,-72 542.5,-72 548.5,-72 554.5,-78 554.5,-84 554.5,-84 554.5,-96 554.5,-96 554.5,-102 548.5,-108 542.5,-108"/>
<text text-anchor="middle" x="527.5" y="-87.5" font-family="sans" font-size="10.00" fill="#000000">report</text>
</g>
<!-- 24&#45;&gt;0 -->
<g id="edge5" class="edge">
<title>24&#45;&gt;0</title>
<path fill="none" stroke="#c0c0c0" stroke-width="2" d="M500.2759,-72.0171C486.36,-62.825 469.2476,-51.5213 454.2796,-41.6342"/>
<polygon fill="#c0c0c0" stroke="#c0c0c0" stroke-width="2" points="456.0279,-38.5945 445.7548,-36.0032 452.1698,-44.4353 456.0279,-38.5945"/>
</g>
<!-- 25&#45;&gt;24 -->
<g id="edge38" class="edge">
<title>25&#45;&gt;24</title>
<path fill="none" stroke="#c0c0c0" stroke-width="2" d="M528.2477,-143.8314C528.1407,-136.131 528.0135,-126.9743 527.8947,-118.4166"/>
<polygon fill="#c0c0c0" stroke="#c0c0c0" stroke-width="2" points="531.3944,-118.3637 527.7557,-108.4133 524.3951,-118.4609 531.3944,-118.3637"/>
</g>
<!-- 26 -->
<g id="node27" class="node">
<title>26</title>
<path fill="none" stroke="#569ad8" stroke-width="2" stroke-dasharray="5,2" d="M615.5,-108C615.5,-108 585.5,-108 585.5,-108 579.5,-108 573.5,-102 573.5,-96 573.5,-96 573.5,-84 573.5,-84 573.5,-78 579.5,-72 585.5,-72 585.5,-72 615.5,-72 615.5,-72 621.5,-72 627.5,-78 627.5,-84 627.5,-84 627.5,-96 627.5,-96 627.5,-102 621.5,-108 615.5,-108"/>
<text text-anchor="middle" x="600.5" y="-87.5" font-family="sans" font-size="10.00" fill="#000000">report</text>
</g>
<!-- 26&#45;&gt;0 -->
<g id="edge6" class="edge">
<title>26&#45;&gt;0</title>
<path fill="none" stroke="#c0c0c0" stroke-width="2" d="M573.1569,-76.3346C569.9227,-74.8264 566.6519,-73.3499 563.5,-72 527.1159,-56.4177 484.5801,-40.8839 455.0269,-30.5047"/>
<polygon fill="#c0c0c0" stroke="#c0c0c0" stroke-width="2" points="456.1247,-27.1809 445.5299,-27.1898 453.8179,-33.7899 456.1247,-27.1809"/>
</g>
<!-- 27&#45;&gt;26 -->
<g id="edge41" class="edge">
<title>27&#45;&gt;26</title>
<path fill="none" stroke="#c0c0c0" stroke-width="2" d="M601.2477,-143.8314C601.1407,-136.131 601.0135,-126.9743 600.8947,-118.4166"/>
<polygon fill="#c0c0c0" stroke="#c0c0c0" stroke-width="2" points="604.3944,-118.3637 600.7557,-108.4133 597.3951,-118.4609 604.3944,-118.3637"/>
</g>
</g>
</svg>
